<svg width="66" height="66" viewBox="0 0 66 66" fill="none" xmlns="http://www.w3.org/2000/svg">
<mask id="path-1-inside-1_68_88" fill="white">
<path fill-rule="evenodd" clip-rule="evenodd" d="M0.711813 0.20486C0.0410629 0.576521 0.0194834 0.739398 0.0142603 5.48344C0.00903727 10.3016 0.0388637 10.5153 0.761569 10.8446C0.95977 10.9349 1.64481 11.0089 2.28381 11.0089H3.44567L3.44512 19.7025L3.44471 28.3961L2.83402 28.6473C1.89318 29.0342 1.04114 29.8704 0.529968 30.909C0.126144 31.7293 0.078174 31.9511 0.078174 33.0007C0.078174 34.0502 0.126144 34.2721 0.529968 35.0924C1.04114 36.1309 1.89318 36.9672 2.83402 37.3541L3.44471 37.6052L3.44512 46.2988L3.44567 54.9925H2.27048C0.953997 54.9925 0.430867 55.1801 0.173701 55.7446C-0.0579003 56.2527 -0.0579003 64.7281 0.173701 65.2362C0.502341 65.9576 0.720472 65.9884 5.5074 65.9884C10.2943 65.9884 10.5125 65.9576 10.8411 65.2362C10.9424 65.0139 11.0053 64.1676 11.0053 63.0268V61.1777L19.699 61.1782L28.3926 61.1786L28.6437 61.7893C29.0306 62.7301 29.8669 63.5822 30.9055 64.0934C31.7257 64.4972 31.9476 64.5452 32.9971 64.5452C34.0467 64.5452 34.2685 64.4972 35.0888 64.0934C36.1274 63.5822 36.9636 62.7301 37.3506 61.7893L37.6017 61.1786L46.2953 61.1782L54.9889 61.1777V63.0401C54.9889 65.0837 55.1115 65.5373 55.7411 65.8241C55.9964 65.9405 57.3826 65.9884 60.5002 65.9884C65.2727 65.9884 65.4921 65.9573 65.8206 65.2362C66.0783 64.6708 66.0501 56.2048 65.789 55.6996C65.5076 55.1556 65.0282 54.9925 63.7105 54.9925H62.5486L62.5492 46.2988L62.5496 37.6052L63.1603 37.3541C64.1011 36.9672 64.9531 36.1309 65.4643 35.0924C65.8681 34.2721 65.9161 34.0502 65.9161 33.0007C65.9161 31.9511 65.8681 31.7293 65.4643 30.909C64.9531 29.8704 64.1011 29.0342 63.1603 28.6473L62.5496 28.3961L62.5492 19.7025L62.5486 11.0089H63.7105C64.3495 11.0089 65.0345 10.9349 65.2327 10.8446C65.9541 10.516 65.9848 10.2979 65.9848 5.51093C65.9848 0.724003 65.9541 0.505873 65.2327 0.177233C64.7246 -0.0543684 56.2492 -0.0543684 55.7411 0.177233C55.1766 0.434399 54.9889 0.957529 54.9889 2.27401V3.4492L46.2953 3.44865L37.6017 3.44824L37.3506 2.83755C36.9636 1.89672 36.1274 1.04467 35.0888 0.5335C34.2685 0.129676 34.0467 0.0817059 32.9971 0.0817059C31.9476 0.0817059 31.7257 0.129676 30.9055 0.5335C29.8669 1.04467 29.0306 1.89672 28.6437 2.83755L28.3926 3.44824L19.699 3.44865L11.0053 3.4492V2.28735C11.0053 0.969625 10.8422 0.490203 10.2982 0.208846C9.76446 -0.0671512 1.20896 -0.0707248 0.711813 0.20486ZM8.25637 5.51093V8.2599H5.5074H2.75842V5.51093V2.76196H5.5074H8.25637V5.51093ZM33.9629 3.03864C34.576 3.35147 35.0589 4.14249 35.0589 4.83386C35.0589 5.84974 34.0129 6.88542 32.987 6.88542C32.3477 6.88542 31.4985 6.35088 31.1962 5.75806C30.6886 4.76307 31.0072 3.67681 31.9791 3.0884C32.6372 2.69007 33.2494 2.67468 33.9629 3.03864ZM63.2359 5.51093V8.2599H60.4869H57.7379V5.51093V2.76196H60.4869H63.2359V5.51093ZM28.6437 6.80982C29.0306 7.75066 29.8669 8.6027 30.9055 9.11387C31.7257 9.5177 31.9476 9.56567 32.9971 9.56567C34.0467 9.56567 34.2685 9.5177 35.0888 9.11387C36.1274 8.6027 36.9636 7.75066 37.3506 6.80982L37.6017 6.19914L46.2953 6.19872L54.9889 6.19817V8.04727C54.9889 10.9077 55.0897 11.0089 57.9372 11.0089H59.7996L59.7991 19.7025L59.7987 28.3961L59.188 28.6473C58.2472 29.0342 57.3951 29.8704 56.8839 30.909C56.4801 31.7293 56.4322 31.9511 56.4322 33.0007C56.4322 34.0502 56.4801 34.2721 56.8839 35.0924C57.3951 36.1309 58.2472 36.9672 59.188 37.3541L59.7987 37.6052L59.7991 46.2988L59.7996 54.9925H57.9506C56.8097 54.9925 55.9635 55.0554 55.7411 55.1567C55.1766 55.4139 54.9889 55.937 54.9889 57.2535V58.4287L46.2953 58.4281L37.6017 58.4277L37.3506 57.817C36.9636 56.8762 36.1274 56.0242 35.0888 55.513C34.2685 55.1092 34.0467 55.0612 32.9971 55.0612C31.9476 55.0612 31.7257 55.1092 30.9055 55.513C29.8669 56.0242 29.0306 56.8762 28.6437 57.817L28.3926 58.4277L19.699 58.4281L11.0053 58.4287V57.2535C11.0053 55.937 10.8177 55.4139 10.2532 55.1567C10.0308 55.0554 9.18456 54.9925 8.04374 54.9925H6.19464L6.19519 46.2988L6.1956 37.6052L6.80629 37.3541C7.74713 36.9672 8.59917 36.1309 9.11034 35.0924C9.51417 34.2721 9.56214 34.0502 9.56214 33.0007C9.56214 31.9511 9.51417 31.7293 9.11034 30.909C8.59917 29.8704 7.74713 29.0342 6.80629 28.6473L6.1956 28.3961L6.19519 19.7025L6.19464 11.0089H8.05707C10.9046 11.0089 11.0053 10.9077 11.0053 8.04727V6.19817L19.699 6.19872L28.3926 6.19914L28.6437 6.80982ZM14.4567 13.9497C13.7318 14.3515 13.7644 13.4942 13.7591 32.2859C13.7539 51.3054 13.7149 50.3441 14.5064 50.7048C14.7801 50.8294 19.2363 50.869 33.0105 50.869C52.7323 50.869 51.7148 50.9091 52.0757 50.1169C52.3132 49.5957 52.3132 15.0312 52.0757 14.51C51.7146 13.7174 52.7377 13.7574 32.9697 13.7627C18.1396 13.7667 14.7246 13.8011 14.4567 13.9497ZM49.491 27.5989C49.491 33.6996 49.4389 38.6324 49.3753 38.5605C49.3115 38.4887 47.0657 35.6775 44.3845 32.3134C41.7033 28.9494 39.3972 26.1056 39.2599 25.9939C38.875 25.681 38.0188 25.7364 37.6326 26.0992C37.4521 26.2687 36.3508 27.6097 35.1852 29.079C34.0195 30.5483 33.0349 31.7504 32.9971 31.7504C32.9593 31.7504 31.9748 30.5483 30.8091 29.079C29.6435 27.6097 28.5422 26.2687 28.3617 26.0992C27.9755 25.7364 27.1193 25.681 26.7344 25.9939C26.5971 26.1056 24.291 28.9494 21.6098 32.3134C18.9286 35.6775 16.6828 38.4887 16.619 38.5605C16.5554 38.6324 16.5033 33.6996 16.5033 27.5989V16.5068H32.9971H49.491V27.5989ZM30.1239 32.6201C31.5152 34.3761 33.6279 37.0358 34.8188 38.5304L36.9838 41.2476H27.4896H17.9953L18.2457 40.9298C21.6791 36.5745 27.4291 29.427 27.4997 29.427C27.5517 29.427 28.7327 30.8639 30.1239 32.6201ZM43.2962 35.3394L47.9476 41.1789L44.3574 41.2156C42.3828 41.2358 40.6974 41.2255 40.6122 41.1928C40.5269 41.16 39.1781 39.5222 37.6149 37.5531L34.7727 33.973L36.5932 31.6979C37.5945 30.4466 38.4657 29.4401 38.5293 29.4614C38.593 29.4825 40.738 32.1276 43.2962 35.3394ZM5.78587 31.2156C6.39903 31.5285 6.88189 32.3195 6.88189 33.0108C6.88189 34.0267 5.8359 35.0624 4.80998 35.0624C4.17071 35.0624 3.32155 34.5279 3.01916 33.9351C2.51157 32.9401 2.83017 31.8538 3.80207 31.2654C4.46018 30.8671 5.07237 30.8517 5.78587 31.2156ZM62.1399 31.2156C62.753 31.5285 63.2359 32.3195 63.2359 33.0108C63.2359 34.0267 62.1899 35.0624 61.164 35.0624C60.5247 35.0624 59.6755 34.5279 59.3731 33.9351C58.8655 32.9401 59.1842 31.8538 60.1561 31.2654C60.8142 30.8671 61.4264 30.8517 62.1399 31.2156ZM49.491 46.0583V48.12H32.9971H16.5033V46.0583V43.9966H32.9971H49.491V46.0583ZM8.25637 60.4904V63.2394H5.5074H2.75842V60.4904V57.7414H5.5074H8.25637V60.4904ZM33.9629 58.0181C34.576 58.331 35.0589 59.122 35.0589 59.8133C35.0589 60.8292 34.0129 61.8649 32.987 61.8649C32.3477 61.8649 31.4985 61.3304 31.1962 60.7375C30.6886 59.7426 31.0072 58.6563 31.9791 58.0679C32.6372 57.6696 33.2494 57.6542 33.9629 58.0181ZM63.2359 60.4904V63.2394H60.4869H57.7379V60.4904V57.7414H60.4869H63.2359V60.4904Z"/>
</mask>
<path fill-rule="evenodd" clip-rule="evenodd" d="M0.711813 0.20486C0.0410629 0.576521 0.0194834 0.739398 0.0142603 5.48344C0.00903727 10.3016 0.0388637 10.5153 0.761569 10.8446C0.95977 10.9349 1.64481 11.0089 2.28381 11.0089H3.44567L3.44512 19.7025L3.44471 28.3961L2.83402 28.6473C1.89318 29.0342 1.04114 29.8704 0.529968 30.909C0.126144 31.7293 0.078174 31.9511 0.078174 33.0007C0.078174 34.0502 0.126144 34.2721 0.529968 35.0924C1.04114 36.1309 1.89318 36.9672 2.83402 37.3541L3.44471 37.6052L3.44512 46.2988L3.44567 54.9925H2.27048C0.953997 54.9925 0.430867 55.1801 0.173701 55.7446C-0.0579003 56.2527 -0.0579003 64.7281 0.173701 65.2362C0.502341 65.9576 0.720472 65.9884 5.5074 65.9884C10.2943 65.9884 10.5125 65.9576 10.8411 65.2362C10.9424 65.0139 11.0053 64.1676 11.0053 63.0268V61.1777L19.699 61.1782L28.3926 61.1786L28.6437 61.7893C29.0306 62.7301 29.8669 63.5822 30.9055 64.0934C31.7257 64.4972 31.9476 64.5452 32.9971 64.5452C34.0467 64.5452 34.2685 64.4972 35.0888 64.0934C36.1274 63.5822 36.9636 62.7301 37.3506 61.7893L37.6017 61.1786L46.2953 61.1782L54.9889 61.1777V63.0401C54.9889 65.0837 55.1115 65.5373 55.7411 65.8241C55.9964 65.9405 57.3826 65.9884 60.5002 65.9884C65.2727 65.9884 65.4921 65.9573 65.8206 65.2362C66.0783 64.6708 66.0501 56.2048 65.789 55.6996C65.5076 55.1556 65.0282 54.9925 63.7105 54.9925H62.5486L62.5492 46.2988L62.5496 37.6052L63.1603 37.3541C64.1011 36.9672 64.9531 36.1309 65.4643 35.0924C65.8681 34.2721 65.9161 34.0502 65.9161 33.0007C65.9161 31.9511 65.8681 31.7293 65.4643 30.909C64.9531 29.8704 64.1011 29.0342 63.1603 28.6473L62.5496 28.3961L62.5492 19.7025L62.5486 11.0089H63.7105C64.3495 11.0089 65.0345 10.9349 65.2327 10.8446C65.9541 10.516 65.9848 10.2979 65.9848 5.51093C65.9848 0.724003 65.9541 0.505873 65.2327 0.177233C64.7246 -0.0543684 56.2492 -0.0543684 55.7411 0.177233C55.1766 0.434399 54.9889 0.957529 54.9889 2.27401V3.4492L46.2953 3.44865L37.6017 3.44824L37.3506 2.83755C36.9636 1.89672 36.1274 1.04467 35.0888 0.5335C34.2685 0.129676 34.0467 0.0817059 32.9971 0.0817059C31.9476 0.0817059 31.7257 0.129676 30.9055 0.5335C29.8669 1.04467 29.0306 1.89672 28.6437 2.83755L28.3926 3.44824L19.699 3.44865L11.0053 3.4492V2.28735C11.0053 0.969625 10.8422 0.490203 10.2982 0.208846C9.76446 -0.0671512 1.20896 -0.0707248 0.711813 0.20486ZM8.25637 5.51093V8.2599H5.5074H2.75842V5.51093V2.76196H5.5074H8.25637V5.51093ZM33.9629 3.03864C34.576 3.35147 35.0589 4.14249 35.0589 4.83386C35.0589 5.84974 34.0129 6.88542 32.987 6.88542C32.3477 6.88542 31.4985 6.35088 31.1962 5.75806C30.6886 4.76307 31.0072 3.67681 31.9791 3.0884C32.6372 2.69007 33.2494 2.67468 33.9629 3.03864ZM63.2359 5.51093V8.2599H60.4869H57.7379V5.51093V2.76196H60.4869H63.2359V5.51093ZM28.6437 6.80982C29.0306 7.75066 29.8669 8.6027 30.9055 9.11387C31.7257 9.5177 31.9476 9.56567 32.9971 9.56567C34.0467 9.56567 34.2685 9.5177 35.0888 9.11387C36.1274 8.6027 36.9636 7.75066 37.3506 6.80982L37.6017 6.19914L46.2953 6.19872L54.9889 6.19817V8.04727C54.9889 10.9077 55.0897 11.0089 57.9372 11.0089H59.7996L59.7991 19.7025L59.7987 28.3961L59.188 28.6473C58.2472 29.0342 57.3951 29.8704 56.8839 30.909C56.4801 31.7293 56.4322 31.9511 56.4322 33.0007C56.4322 34.0502 56.4801 34.2721 56.8839 35.0924C57.3951 36.1309 58.2472 36.9672 59.188 37.3541L59.7987 37.6052L59.7991 46.2988L59.7996 54.9925H57.9506C56.8097 54.9925 55.9635 55.0554 55.7411 55.1567C55.1766 55.4139 54.9889 55.937 54.9889 57.2535V58.4287L46.2953 58.4281L37.6017 58.4277L37.3506 57.817C36.9636 56.8762 36.1274 56.0242 35.0888 55.513C34.2685 55.1092 34.0467 55.0612 32.9971 55.0612C31.9476 55.0612 31.7257 55.1092 30.9055 55.513C29.8669 56.0242 29.0306 56.8762 28.6437 57.817L28.3926 58.4277L19.699 58.4281L11.0053 58.4287V57.2535C11.0053 55.937 10.8177 55.4139 10.2532 55.1567C10.0308 55.0554 9.18456 54.9925 8.04374 54.9925H6.19464L6.19519 46.2988L6.1956 37.6052L6.80629 37.3541C7.74713 36.9672 8.59917 36.1309 9.11034 35.0924C9.51417 34.2721 9.56214 34.0502 9.56214 33.0007C9.56214 31.9511 9.51417 31.7293 9.11034 30.909C8.59917 29.8704 7.74713 29.0342 6.80629 28.6473L6.1956 28.3961L6.19519 19.7025L6.19464 11.0089H8.05707C10.9046 11.0089 11.0053 10.9077 11.0053 8.04727V6.19817L19.699 6.19872L28.3926 6.19914L28.6437 6.80982ZM14.4567 13.9497C13.7318 14.3515 13.7644 13.4942 13.7591 32.2859C13.7539 51.3054 13.7149 50.3441 14.5064 50.7048C14.7801 50.8294 19.2363 50.869 33.0105 50.869C52.7323 50.869 51.7148 50.9091 52.0757 50.1169C52.3132 49.5957 52.3132 15.0312 52.0757 14.51C51.7146 13.7174 52.7377 13.7574 32.9697 13.7627C18.1396 13.7667 14.7246 13.8011 14.4567 13.9497ZM49.491 27.5989C49.491 33.6996 49.4389 38.6324 49.3753 38.5605C49.3115 38.4887 47.0657 35.6775 44.3845 32.3134C41.7033 28.9494 39.3972 26.1056 39.2599 25.9939C38.875 25.681 38.0188 25.7364 37.6326 26.0992C37.4521 26.2687 36.3508 27.6097 35.1852 29.079C34.0195 30.5483 33.0349 31.7504 32.9971 31.7504C32.9593 31.7504 31.9748 30.5483 30.8091 29.079C29.6435 27.6097 28.5422 26.2687 28.3617 26.0992C27.9755 25.7364 27.1193 25.681 26.7344 25.9939C26.5971 26.1056 24.291 28.9494 21.6098 32.3134C18.9286 35.6775 16.6828 38.4887 16.619 38.5605C16.5554 38.6324 16.5033 33.6996 16.5033 27.5989V16.5068H32.9971H49.491V27.5989ZM30.1239 32.6201C31.5152 34.3761 33.6279 37.0358 34.8188 38.5304L36.9838 41.2476H27.4896H17.9953L18.2457 40.9298C21.6791 36.5745 27.4291 29.427 27.4997 29.427C27.5517 29.427 28.7327 30.8639 30.1239 32.6201ZM43.2962 35.3394L47.9476 41.1789L44.3574 41.2156C42.3828 41.2358 40.6974 41.2255 40.6122 41.1928C40.5269 41.16 39.1781 39.5222 37.6149 37.5531L34.7727 33.973L36.5932 31.6979C37.5945 30.4466 38.4657 29.4401 38.5293 29.4614C38.593 29.4825 40.738 32.1276 43.2962 35.3394ZM5.78587 31.2156C6.39903 31.5285 6.88189 32.3195 6.88189 33.0108C6.88189 34.0267 5.8359 35.0624 4.80998 35.0624C4.17071 35.0624 3.32155 34.5279 3.01916 33.9351C2.51157 32.9401 2.83017 31.8538 3.80207 31.2654C4.46018 30.8671 5.07237 30.8517 5.78587 31.2156ZM62.1399 31.2156C62.753 31.5285 63.2359 32.3195 63.2359 33.0108C63.2359 34.0267 62.1899 35.0624 61.164 35.0624C60.5247 35.0624 59.6755 34.5279 59.3731 33.9351C58.8655 32.9401 59.1842 31.8538 60.1561 31.2654C60.8142 30.8671 61.4264 30.8517 62.1399 31.2156ZM49.491 46.0583V48.12H32.9971H16.5033V46.0583V43.9966H32.9971H49.491V46.0583ZM8.25637 60.4904V63.2394H5.5074H2.75842V60.4904V57.7414H5.5074H8.25637V60.4904ZM33.9629 58.0181C34.576 58.331 35.0589 59.122 35.0589 59.8133C35.0589 60.8292 34.0129 61.8649 32.987 61.8649C32.3477 61.8649 31.4985 61.3304 31.1962 60.7375C30.6886 59.7426 31.0072 58.6563 31.9791 58.0679C32.6372 57.6696 33.2494 57.6542 33.9629 58.0181ZM63.2359 60.4904V63.2394H60.4869H57.7379V60.4904V57.7414H60.4869H63.2359V60.4904Z" fill="#4457FF" stroke="#FAF7FE" stroke-width="0.4" mask="url(#path-1-inside-1_68_88)"/>
</svg>
