<svg width="28" height="28" viewBox="0 0 28 28" fill="none" xmlns="http://www.w3.org/2000/svg">
<path d="M19.6586 0.459961H8.34135C3.74191 0.459961 0 4.1051 0 8.58559V19.6102C0 24.0907 3.74191 27.7358 8.34135 27.7358H19.6586C24.2581 27.7358 28 24.0907 28 19.6102V8.58559C28 4.1051 24.258 0.459961 19.6586 0.459961ZM25.1832 19.6102C25.1832 22.5824 22.7097 24.9919 19.6586 24.9919H8.34135C5.29025 24.9919 2.8168 22.5824 2.8168 19.6102V8.58559C2.8168 5.61335 5.29025 3.20391 8.34135 3.20391H19.6586C22.7097 3.20391 25.1832 5.61335 25.1832 8.58559V19.6102Z" fill="url(#paint0_linear_166_32)"/>
<path d="M13.9991 7.04248C10.006 7.04248 6.75732 10.2072 6.75732 14.0971C6.75732 17.9871 10.006 21.1519 13.9991 21.1519C17.9923 21.1519 21.241 17.9871 21.241 14.0971C21.241 10.2072 17.9923 7.04248 13.9991 7.04248ZM13.9991 18.4079C11.5553 18.4079 9.57413 16.4779 9.57413 14.0972C9.57413 11.7164 11.5553 9.78651 13.9991 9.78651C16.443 9.78651 18.4242 11.7164 18.4242 14.0972C18.4242 16.4779 16.443 18.4079 13.9991 18.4079Z" fill="url(#paint1_linear_166_32)"/>
<path d="M21.2563 8.78613C22.2147 8.78613 22.9916 8.0293 22.9916 7.0957C22.9916 6.1621 22.2147 5.40527 21.2563 5.40527C20.2979 5.40527 19.521 6.1621 19.521 7.0957C19.521 8.0293 20.2979 8.78613 21.2563 8.78613Z" fill="url(#paint2_linear_166_32)"/>
<defs>
<linearGradient id="paint0_linear_166_32" x1="14" y1="27.6564" x2="14" y2="0.671817" gradientUnits="userSpaceOnUse">
<stop stop-color="#E09B3D"/>
<stop offset="0.3" stop-color="#C74C4D"/>
<stop offset="0.6" stop-color="#C21975"/>
<stop offset="1" stop-color="#7024C4"/>
</linearGradient>
<linearGradient id="paint1_linear_166_32" x1="13.9991" y1="27.6561" x2="13.9991" y2="0.670731" gradientUnits="userSpaceOnUse">
<stop stop-color="#E09B3D"/>
<stop offset="0.3" stop-color="#C74C4D"/>
<stop offset="0.6" stop-color="#C21975"/>
<stop offset="1" stop-color="#7024C4"/>
</linearGradient>
<linearGradient id="paint2_linear_166_32" x1="21.2563" y1="27.6561" x2="21.2563" y2="0.671081" gradientUnits="userSpaceOnUse">
<stop stop-color="#E09B3D"/>
<stop offset="0.3" stop-color="#C74C4D"/>
<stop offset="0.6" stop-color="#C21975"/>
<stop offset="1" stop-color="#7024C4"/>
</linearGradient>
</defs>
</svg>
