<svg width="30" height="24" viewBox="0 0 30 24" fill="none" xmlns="http://www.w3.org/2000/svg">
<path d="M9.43475 23.9774C20.7561 23.9774 26.9472 14.9834 26.9472 7.18456C26.9472 6.92911 26.9417 6.67473 26.9298 6.42175C28.1314 5.58858 29.1759 4.54887 30 3.36543C28.8972 3.83567 27.7102 4.15181 26.4654 4.29483C27.7361 3.56387 28.7117 2.40805 29.1719 1.03021C27.9826 1.70629 26.6656 2.19747 25.2635 2.46276C24.1404 1.31556 22.5411 0.598145 20.7705 0.598145C17.3717 0.598145 14.6152 3.24122 14.6152 6.49933C14.6152 6.96272 14.6693 7.41308 14.7748 7.84515C9.65931 7.59833 5.12301 5.24992 2.08762 1.67867C1.55925 2.55072 1.25433 3.56404 1.25433 4.64527C1.25433 6.69267 2.34098 8.50064 3.99325 9.55794C2.98347 9.52821 2.03497 9.26239 1.20572 8.81994C1.2048 8.84475 1.2048 8.86885 1.2048 8.89524C1.2048 11.7536 3.32636 14.1402 6.14306 14.681C5.6257 14.816 5.08137 14.8886 4.51997 14.8886C4.12406 14.8886 3.73805 14.8513 3.36305 14.7822C4.14662 17.1272 6.41899 18.8337 9.11296 18.8816C7.00626 20.4649 4.35247 21.408 1.46825 21.408C0.972169 21.408 0.481773 21.3807 0 21.3262C2.72405 23.0005 5.95868 23.9775 9.43493 23.9775" fill="#008EE8"/>
</svg>
