<svg width="26" height="27" viewBox="0 0 26 27" fill="none" xmlns="http://www.w3.org/2000/svg">
<path d="M24.5643 0.762695H1.4344C0.642368 0.763082 0.000289971 1.38892 0.000488327 2.16064V24.6916C0.000885039 25.4631 0.64336 26.0886 1.43559 26.0884H24.5643C25.3567 26.0886 25.9992 25.4629 25.9994 24.691C25.9994 24.6908 25.9994 24.6906 25.9994 24.6904V2.15948C25.999 1.38795 25.3565 0.762502 24.5643 0.762695Z" fill="#4267B2"/>
<path d="M17.9513 26.0894V16.2952H21.3408L21.8486 12.4616H17.9513V10.02C17.9513 8.91265 18.2669 8.1581 19.897 8.1581H21.9629V4.73861C21.6035 4.69204 20.3703 4.58789 18.9354 4.58789C15.9394 4.58789 13.889 6.36865 13.889 9.64033V12.4616H10.5122V16.2952H13.889V26.0894H17.9513Z" fill="white"/>
</svg>
