<svg width="235" height="63" viewBox="0 0 235 63" fill="none" xmlns="http://www.w3.org/2000/svg">
<path d="M24.6601 44.6913H25.2109L25.4098 44.6991H26.1627V49.2484H21.7969V49.2358C17.6396 49.2505 13.4833 49.2505 9.328 49.2358C7.47187 49.2279 5.70571 48.7774 4.16682 47.7251C1.85456 46.1499 0.378788 43.9966 0.124657 41.1297C0.0457397 40.2287 0 39.3213 0 38.4172V9.48832C0 7.63744 0.393007 5.87951 1.42051 4.31531C3.00044 1.90838 5.188 0.426094 8.09847 0.134683C9.02339 0.0433271 9.95776 0.00552345 10.8874 0.00552345C20.4785 -0.00184115 30.0691 -0.00184115 39.6591 0.00552345C41.7851 0.0071002 43.7817 0.46234 45.5179 1.78395C47.6566 3.41272 48.9714 5.51247 49.2144 8.22186C49.2712 8.86296 49.328 9.50564 49.328 10.1483V21.4678H49.3391V26.1935H44.7714V25.4626C44.7681 25.4293 44.7662 25.3965 44.765 25.3638C44.7635 25.3177 44.7635 25.2717 44.7635 25.2247V22.8619C44.7698 18.2549 44.7672 13.6485 44.7556 9.04254C44.7434 8.0063 44.3768 7.00533 43.7166 6.20548C43.0564 5.4056 42.1421 4.85489 41.1254 4.64453C40.8199 4.58803 40.5095 4.56219 40.1989 4.56734C29.8439 4.56104 19.4883 4.56104 9.13229 4.56734C6.54224 4.56892 4.55509 6.56315 4.55509 9.16226C4.55358 12.4289 4.55509 15.6954 4.55659 18.962C4.55986 26.0068 4.56314 33.0516 4.53617 40.0964C4.52669 42.4639 6.57854 44.7243 9.21121 44.7023C12.8241 44.6725 16.437 44.679 20.0494 44.6856C21.5864 44.6885 23.1233 44.6913 24.6601 44.6913Z" fill="url(#paint0_linear_68_69)"/>
<path d="M38.8289 42.8325C40.4072 44.4623 41.9856 46.0901 43.5639 47.7157C44.0049 48.1728 44.4419 48.6344 44.8788 49.096L44.8823 49.0997C45.0227 49.2481 45.1631 49.3964 45.3036 49.5446C45.3738 49.6185 45.4439 49.6924 45.5141 49.7662C45.6367 49.8952 45.7595 50.024 45.8825 50.1525C46.1377 50.4374 46.4113 50.7053 46.7017 50.9543C48.1222 52.0948 50.1093 51.3623 50.3856 49.587C50.5213 48.7159 50.1346 48.0118 49.5443 47.4022C47.2925 45.0656 45.0428 42.727 42.7953 40.3862C42.4885 40.0673 42.1821 39.7484 41.8757 39.4295L41.8646 39.4179C41.0335 38.5528 40.2028 37.6882 39.3671 36.8278C38.5497 35.9835 37.7302 35.1419 36.9106 34.3002L36.9075 34.2969L36.8995 34.2887C35.9582 33.322 35.0168 32.3552 34.0781 31.3838C33.2294 30.5067 32.3877 29.6213 31.546 28.7358L31.1597 28.3295C31.0552 28.2055 30.9572 28.0761 30.8661 27.942C30.9455 27.8032 31.0357 27.671 31.136 27.5466C31.3514 27.3233 31.5707 27.1032 31.7892 26.8839L31.7896 26.8835C31.9409 26.7317 32.0918 26.5802 32.2409 26.4282C32.3114 26.3579 32.382 26.2875 32.4529 26.2172L32.6672 26.0048C32.7614 25.9115 32.8559 25.8182 32.9504 25.7248L32.9509 25.7244C33.512 25.1699 34.0763 24.6125 34.6194 24.0449C35.8395 22.7658 35.4086 20.9417 33.7671 20.3416C33.3983 20.2059 33.0163 20.1033 32.6355 20.001L32.5313 19.973C30.0396 19.304 27.5469 18.6361 25.0531 17.9693C24.4137 17.7984 23.7741 17.629 23.1345 17.4595L23.1261 17.4573L23.1085 17.4527C21.8166 17.1104 20.5249 16.7681 19.2353 16.4146C17.9553 16.0633 16.3469 17.0872 16.4779 18.5836C16.5048 18.9863 16.5645 19.3862 16.6563 19.7792C17.1383 21.6178 17.6312 23.4544 18.124 25.2907L18.1242 25.2916L18.1248 25.2939L18.1257 25.2973L18.127 25.302L18.147 25.3766C18.271 25.8385 18.3949 26.3003 18.5187 26.7621L18.9116 28.2185C19.3771 29.9433 19.8431 31.6699 20.2975 33.3907C20.8499 35.4888 23.178 35.6668 24.2781 34.4035C24.8951 33.694 25.5777 33.0411 26.2607 32.3879L26.2644 32.3843C26.4975 32.1614 26.7307 31.9384 26.9613 31.713C27.1586 31.5373 27.3651 31.3722 27.58 31.2184C27.6271 31.2618 27.6725 31.303 27.7163 31.3426L27.7613 31.383L27.8337 31.4478C27.9705 31.5704 28.0935 31.6804 28.2114 31.7981C30.5315 34.2019 32.8496 36.6078 35.1655 39.0158C36.3861 40.2885 37.6072 41.5608 38.8289 42.8325Z" fill="url(#paint1_linear_68_69)"/>
<path d="M62.9413 36.4308C62.7645 34.9256 62.1691 33.4998 61.2225 32.3148C59.3474 29.8984 56.8221 28.6792 53.7711 28.6587C48.9082 28.6256 44.0437 28.6398 39.1793 28.6587L39.1682 28.6445H34.5437L38.5448 32.5668C38.5606 32.5842 38.5769 32.6008 38.5933 32.6168C38.6096 32.6327 38.6261 32.648 38.6426 32.6629C38.8489 32.8555 39.0922 33.0043 39.3578 33.1002C39.6235 33.196 39.9058 33.237 40.1878 33.2205C44.8029 33.1964 49.4185 33.1964 54.0347 33.2205C55.2214 33.2246 56.3586 33.6954 57.1998 34.5308C58.041 35.3662 58.5183 36.4988 58.5282 37.6831C58.5419 43.125 58.5419 48.5668 58.5282 54.0087C58.5086 55.1802 58.0323 56.2979 57.2004 57.1247C56.3685 57.9514 55.2465 58.422 54.0725 58.4366C50.437 58.4471 46.8014 58.4436 43.1663 58.4401H43.1656C41.3485 58.4383 39.5315 58.4366 37.7146 58.4366C36.5995 58.4399 35.5272 58.008 34.7268 57.2331C34.2527 56.8112 33.8753 56.2922 33.6204 55.7116C33.3655 55.131 33.239 54.5023 33.2494 53.8685C33.2558 51.8034 33.2558 49.7386 33.2558 47.6739C33.2558 45.6092 33.2558 43.5445 33.2621 41.4794C33.2621 40.7957 33.1137 40.2618 32.5976 39.7624C32.4638 39.6365 32.3321 39.5045 32.2015 39.3737C32.1688 39.3409 32.1362 39.3082 32.1036 39.2757L28.6817 35.6527V39.879C28.6817 44.047 28.6817 48.2134 28.6911 52.3815C28.6805 53.3112 28.7332 54.2407 28.849 55.1633C29.2641 58.0963 30.8298 60.2702 33.371 61.7682C34.9225 62.6834 36.6255 62.9921 38.3964 62.9937C43.0599 63.0021 47.7234 63.0021 52.3869 62.9937C53.2703 62.9943 54.1532 62.9507 55.0322 62.863C57.949 62.5637 60.1097 61.0357 61.696 58.6461C62.7203 57.1071 63.0912 55.3586 63.0991 53.5392C63.1181 48.717 63.1181 43.8952 63.0991 39.074C63.0932 38.1908 63.0405 37.3085 62.9413 36.4308Z" fill="url(#paint2_linear_68_69)"/>
<path fill-rule="evenodd" clip-rule="evenodd" d="M88.9508 28.8036C88.49 28.1063 88.0691 27.4941 87.6882 26.9669C87.3351 26.4709 86.9514 25.9974 86.5392 25.5492C86.153 25.1355 85.7442 24.7317 85.3128 24.3379C84.8501 23.9219 84.3418 23.5594 83.7976 23.2573V23.1691C84.827 22.91 85.814 22.5053 86.7286 21.9672C87.5722 21.4693 88.3261 20.8335 88.9587 20.0864C89.5805 19.3385 90.0618 18.4847 90.3793 17.566C90.7232 16.5674 90.893 15.5172 90.8812 14.4613C90.8812 13.0236 90.6181 11.7666 90.092 10.6902C89.5794 9.63411 88.8271 8.71182 87.8949 7.99659C86.9088 7.25244 85.7883 6.70479 84.5946 6.38357C83.2432 6.0159 81.8474 5.83621 80.4467 5.84957H69.9302V37.7713H75.2161V24.8199H77.3563C77.9671 24.8118 78.5757 24.8946 79.1619 25.0656C79.7009 25.2303 80.2041 25.4942 80.6456 25.8438C81.1435 26.2461 81.5923 26.7055 81.9825 27.2127C82.4776 27.8523 82.9284 28.5249 83.332 29.2258L88.4379 37.7713H94.6361L88.9508 28.8036ZM81.8941 20.1399C81.1678 20.3979 80.4016 20.5259 79.6307 20.518H75.2114V10.1546H79.6749C81.489 10.1546 82.879 10.5852 83.8449 11.4463C84.8108 12.3074 85.2938 13.5014 85.2938 15.0284C85.3051 15.8137 85.1613 16.5935 84.8708 17.3234C84.6059 17.979 84.2027 18.57 83.6887 19.0562C83.1714 19.5386 82.5607 19.9101 81.8941 20.1478V20.1399Z" fill="url(#paint3_linear_68_69)"/>
<path fill-rule="evenodd" clip-rule="evenodd" d="M98.2599 17.7992C100.363 15.5666 102.976 14.4502 106.098 14.4502C109.222 14.445 111.639 15.4453 113.349 17.451C115.059 19.4568 115.914 22.2397 115.914 25.7997V27.7797H100.343C100.402 29.8863 101.053 31.5109 102.294 32.6535C103.536 33.796 105.241 34.3673 107.411 34.3673C109.825 34.3759 112.177 33.6112 114.122 32.1856V36.3426C112.042 37.6479 109.292 38.3006 105.872 38.3006C102.513 38.3027 99.8777 37.2683 97.968 35.1974C96.0581 33.1265 95.1032 30.215 95.1032 26.4629C95.1043 22.9197 96.1565 20.0318 98.2599 17.7992ZM102.252 19.8769C101.217 20.9627 100.582 22.3804 100.345 24.13L110.914 24.1268C110.899 22.2733 110.461 20.8309 109.599 19.7997C108.737 18.7684 107.547 18.2528 106.03 18.2528C105.321 18.242 104.618 18.3811 103.967 18.661C103.315 18.9409 102.731 19.3553 102.252 19.8769Z" fill="url(#paint4_linear_68_69)"/>
<path d="M135.619 31.4736C135.638 30.632 135.485 29.7954 135.17 29.0147C134.876 28.3279 134.447 27.7075 133.907 27.1906C133.31 26.6291 132.639 26.1521 131.912 25.7729C131.053 25.3201 130.171 24.9116 129.27 24.549C128.526 24.2969 127.868 24.0633 127.297 23.848C126.783 23.6615 126.289 23.4229 125.824 23.136C125.451 22.9106 125.134 22.6022 124.899 22.235C124.68 21.8563 124.571 21.4244 124.584 20.9874C124.581 20.5974 124.691 20.2148 124.899 19.8848C125.121 19.5374 125.418 19.2445 125.769 19.0278C126.186 18.7719 126.642 18.5842 127.118 18.4718C127.699 18.332 128.294 18.2648 128.891 18.2717C130.971 18.2717 132.813 18.8204 134.415 19.9178V15.4064C132.752 14.77 130.864 14.4513 128.752 14.4502C127.586 14.4473 126.424 14.5934 125.295 14.885C124.236 15.1496 123.226 15.5854 122.308 16.1751C121.46 16.7158 120.744 17.4379 120.212 18.2891C119.681 19.164 119.411 20.1714 119.432 21.1938C119.416 21.9889 119.544 22.7803 119.811 23.5298C120.062 24.1958 120.445 24.8048 120.936 25.3208C121.483 25.8875 122.115 26.3658 122.81 26.7385C123.625 27.1856 124.469 27.5797 125.335 27.9184C126.093 28.1998 126.78 28.4518 127.396 28.6745C127.961 28.8677 128.503 29.1201 129.014 29.4274C129.433 29.6783 129.801 30.0065 130.097 30.3946C130.371 30.7811 130.512 31.2461 130.498 31.7194C130.498 33.5592 128.937 34.4786 125.815 34.4776C123.482 34.4776 121.349 33.7425 119.416 32.2723V37.0562C121.244 37.8858 123.407 38.3011 125.905 38.3022C127.147 38.3079 128.385 38.1699 129.595 37.8911C130.687 37.6464 131.731 37.2204 132.682 36.6309C133.55 36.0913 134.283 35.3607 134.824 34.4949C135.37 33.583 135.646 32.5355 135.619 31.4736Z" fill="url(#paint5_linear_68_69)"/>
<path fill-rule="evenodd" clip-rule="evenodd" d="M152.945 34.2098C151.369 36.9401 149.057 38.3053 146.011 38.3053C143.765 38.3095 142.006 37.7036 140.736 36.4875C139.466 35.2715 138.831 33.6616 138.831 31.6579C138.83 27.3523 141.314 24.843 146.283 24.13L153.062 23.1738C153.061 19.9247 151.514 18.3001 148.423 18.3001C145.703 18.299 143.25 19.2337 141.065 21.104V16.5815C143.468 15.1575 146.248 14.4455 149.405 14.4455C155.172 14.4455 158.056 17.2809 158.056 22.9517V37.7698H153.035V34.2098H152.945ZM148.262 27.2457C146.776 27.44 145.658 27.7997 144.906 28.3248C144.156 28.8519 143.781 29.7755 143.781 31.0956C143.768 31.5426 143.855 31.9868 144.034 32.3967C144.213 32.8065 144.481 33.1717 144.818 33.4663C145.51 34.0816 146.435 34.3894 147.593 34.3894C149.169 34.3862 150.474 33.8338 151.507 32.7322C152.54 31.6306 153.057 30.2397 153.057 28.5595V26.5778L148.262 27.2457Z" fill="url(#paint6_linear_68_69)"/>
<path d="M169.533 14.9843H164.361V37.7713H169.533V14.9843Z" fill="url(#paint7_linear_68_69)"/>
<path d="M169.2 9.34341C168.599 9.91087 167.798 10.2188 166.97 10.2003C166.166 10.2164 165.387 9.9211 164.797 9.37648C164.503 9.11438 164.269 8.79143 164.113 8.43014C163.957 8.06887 163.882 7.67793 163.892 7.28459C163.883 6.88821 163.959 6.49445 164.115 6.12979C164.271 5.76516 164.503 5.4381 164.797 5.17066C165.381 4.61338 166.162 4.30929 166.97 4.32477C167.796 4.3047 168.596 4.60838 169.2 5.17066C169.496 5.43671 169.731 5.76329 169.888 6.1281C170.046 6.49291 170.123 6.88738 170.114 7.28459C170.118 7.67294 170.038 8.05753 169.88 8.41261C169.723 8.76768 169.491 9.08503 169.2 9.34341Z" fill="url(#paint8_linear_68_69)"/>
<path d="M193.103 33.7451H180.817L193.147 17.1423V14.9843H174.775V19.0121H186.169L173.571 35.837V37.7713H193.103V33.7451Z" fill="url(#paint9_linear_68_69)"/>
<path fill-rule="evenodd" clip-rule="evenodd" d="M199.179 17.7992C201.284 15.5666 203.896 14.4502 207.016 14.4502C210.138 14.445 212.553 15.4453 214.262 17.451C215.971 19.4568 216.825 22.2397 216.825 25.7997V27.7797H201.263C201.322 29.8863 201.972 31.5109 203.214 32.6535C204.455 33.796 206.161 34.3673 208.331 34.3673C210.744 34.3757 213.096 33.611 215.042 32.1856V36.3426C212.96 37.6479 210.21 38.3006 206.792 38.3006C203.432 38.3027 200.797 37.2683 198.887 35.1974C196.978 33.1265 196.023 30.215 196.023 26.4629C196.023 22.9197 197.075 20.0318 199.179 17.7992ZM203.171 19.8769C202.137 20.9627 201.501 22.3804 201.264 24.13L211.833 24.1268C211.816 22.2733 211.377 20.8309 210.517 19.7997C209.656 18.7684 208.467 18.2528 206.95 18.2528C206.241 18.2418 205.537 18.3808 204.886 18.6607C204.235 18.9407 203.65 19.3551 203.171 19.8769Z" fill="url(#paint10_linear_68_69)"/>
<path d="M232.86 14.5841C231.563 14.5854 230.312 15.0645 229.348 15.9294C228.296 16.8272 227.519 18.0775 227.017 19.68H226.928V14.9843H221.755V37.7713H226.928V26.8677C226.928 24.4933 227.441 22.6167 228.467 21.2379C229.493 19.859 230.772 19.1691 232.303 19.168C233.475 19.168 234.377 19.4122 235 19.9021V15.0063C234.51 14.7249 233.796 14.5841 232.86 14.5841Z" fill="url(#paint11_linear_68_69)"/>
<path d="M98.7619 49.7036H96.8552V49.1428H99.409V52.372C98.6117 52.7851 97.7267 53.0012 96.8284 53.0021C96.3149 53.0082 95.8047 52.9185 95.3242 52.7375C94.886 52.5721 94.4877 52.3163 94.1553 51.9868C93.8229 51.6573 93.564 51.2614 93.3955 50.8252C93.0294 49.8485 93.0355 48.7716 93.4128 47.7992C93.5965 47.3371 93.8744 46.9181 94.2289 46.5689C94.5962 46.2122 95.0314 45.9326 95.5089 45.7467C96.0402 45.5417 96.606 45.4401 97.1756 45.4474C97.8836 45.4464 98.5854 45.5778 99.2449 45.8349V46.4886C98.5815 46.1802 97.86 46.0159 97.1283 46.0066C96.6622 46.0001 96.1993 46.083 95.7646 46.2507C95.3709 46.4014 95.0125 46.6314 94.7118 46.9265C94.4183 47.2191 94.1888 47.5694 94.0379 47.9551C93.8763 48.3709 93.7954 48.8135 93.7996 49.2594C93.7922 49.7154 93.8676 50.1691 94.0221 50.5983C94.1592 50.974 94.3743 51.3165 94.6534 51.6033C94.9287 51.8825 95.2623 52.0977 95.6304 52.2334C96.0402 52.3832 96.4741 52.4569 96.9105 52.4508C97.5526 52.4653 98.1884 52.3219 98.7619 52.0333V49.7036Z" fill="url(#paint12_linear_68_69)"/>
<path d="M102.93 49.4736H105.83V48.916H102.93V46.131H106.062V45.5734H102.277V52.8761H106.245V52.3263H102.93V49.4736Z" fill="url(#paint13_linear_68_69)"/>
<path d="M110.427 46.131H108.14V45.5734H113.368V46.131H111.081V52.8761H110.427V46.131Z" fill="url(#paint14_linear_68_69)"/>
<path fill-rule="evenodd" clip-rule="evenodd" d="M122.282 45.5734L119.159 52.8761H119.86L120.807 50.6345H124.311L125.237 52.8761H125.958L122.868 45.5734H122.282ZM120.996 50.0974L122.358 46.8241C122.38 46.7748 122.4 46.7196 122.421 46.665L122.423 46.6589L122.425 46.654L122.438 46.6206L122.45 46.5894C122.48 46.5122 122.51 46.4067 122.541 46.2933H122.562C122.593 46.4019 122.623 46.4949 122.65 46.5721C122.677 46.6493 122.712 46.7296 122.753 46.8304L124.121 50.0974H120.996Z" fill="url(#paint15_linear_68_69)"/>
<path d="M128.105 45.5734H128.758V52.3263H131.91V52.8761H128.105V45.5734Z" fill="url(#paint16_linear_68_69)"/>
<path d="M134.928 45.5734H134.275V52.8761H138.08V52.3263H134.928V45.5734Z" fill="url(#paint17_linear_68_69)"/>
<path d="M147.883 49.5067C148.092 49.648 148.284 49.8135 148.455 49.9997C148.588 50.1483 148.693 50.3203 148.764 50.507C148.831 50.6955 148.864 50.8944 148.862 51.0945C148.867 51.3603 148.813 51.6238 148.704 51.8664C148.595 52.0983 148.436 52.3033 148.238 52.4665C148.021 52.6433 147.771 52.776 147.503 52.8572C147.189 52.9541 146.861 53.0014 146.532 52.9974C145.729 52.9974 145.083 52.8703 144.592 52.6162V51.9373C144.874 52.1013 145.176 52.2284 145.49 52.3153C145.833 52.4027 146.186 52.4445 146.54 52.4397C146.774 52.4432 147.008 52.4124 147.233 52.3484C147.421 52.2959 147.598 52.2082 147.754 52.0901C147.893 51.9853 148.005 51.8492 148.081 51.6928C148.157 51.5365 148.196 51.3644 148.193 51.1906C148.196 51.0121 148.162 50.835 148.092 50.6708C148.018 50.5122 147.916 50.3681 147.792 50.2455C147.642 50.1003 147.476 49.973 147.298 49.8659C147.1 49.743 146.87 49.6117 146.608 49.472C146.29 49.3082 146.009 49.1507 145.763 48.9995C145.541 48.8654 145.335 48.7069 145.148 48.5269C144.987 48.3685 144.858 48.1801 144.769 47.9724C144.678 47.7434 144.634 47.4987 144.64 47.2526C144.636 46.9903 144.7 46.7316 144.826 46.5012C144.947 46.2765 145.118 46.0826 145.326 45.9341C145.549 45.7735 145.798 45.6525 146.062 45.5765C146.35 45.4914 146.649 45.4489 146.949 45.4505C147.231 45.4487 147.513 45.4671 147.793 45.5056C148.044 45.5403 148.292 45.593 148.535 45.6632V46.2933C148.013 46.09 147.456 45.9909 146.895 46.0018C146.681 45.9999 146.468 46.0318 146.264 46.0964C146.083 46.1532 145.913 46.2418 145.763 46.3578C145.627 46.4637 145.515 46.5981 145.437 46.7516C145.359 46.9044 145.319 47.0734 145.32 47.2447C145.315 47.4248 145.348 47.604 145.416 47.7708C145.485 47.9273 145.587 48.0675 145.715 48.1819C145.876 48.3274 146.054 48.4547 146.243 48.5616C146.458 48.6892 146.718 48.8325 147.021 48.99C147.319 49.1447 147.607 49.3173 147.883 49.5067Z" fill="url(#paint18_linear_68_69)"/>
<path d="M152.219 45.5734H151.565V52.8761H152.219V45.5734Z" fill="url(#paint19_linear_68_69)"/>
<path d="M159.266 46.131H154.889V45.5734H160.267V45.8049L155.475 52.3263H160.191V52.8761H154.501V52.6256L159.266 46.131Z" fill="url(#paint20_linear_68_69)"/>
<path d="M163.285 49.4736H166.184V48.916H163.285V46.131H166.416V45.5734H162.631V52.8761H166.599V52.3263H163.285V49.4736Z" fill="url(#paint21_linear_68_69)"/>
<path d="M172.283 49.5067C172.492 49.6485 172.683 49.8139 172.854 49.9997C172.989 50.1477 173.096 50.3191 173.17 50.5054C173.236 50.6941 173.27 50.8929 173.268 51.0929C173.273 51.3587 173.219 51.6223 173.11 51.8648C172.999 52.0979 172.837 52.3031 172.636 52.465C172.42 52.6417 172.17 52.7744 171.902 52.8556C171.588 52.9525 171.261 52.9998 170.932 52.9958C170.128 52.9958 169.481 52.8687 168.992 52.6146V51.9357C169.274 52.0998 169.576 52.2268 169.89 52.3137C170.232 52.401 170.585 52.4429 170.938 52.4382C171.173 52.4417 171.407 52.4109 171.633 52.3468C171.821 52.294 171.997 52.2063 172.153 52.0885C172.292 51.9837 172.405 51.8476 172.481 51.6913C172.557 51.535 172.595 51.3629 172.592 51.189C172.596 51.0106 172.561 50.8334 172.491 50.6692C172.417 50.5109 172.316 50.367 172.191 50.2439C172.042 50.0991 171.876 49.9718 171.697 49.8643C171.5 49.7414 171.27 49.6101 171.006 49.4705C170.688 49.3067 170.407 49.1491 170.163 48.9979C169.94 48.8643 169.733 48.7057 169.546 48.5253C169.385 48.3668 169.257 48.1784 169.169 47.9709C169.077 47.7421 169.033 47.4972 169.039 47.251C169.036 46.9894 169.099 46.7313 169.224 46.5012C169.345 46.2766 169.516 46.0826 169.724 45.9341C169.946 45.7734 170.195 45.6524 170.458 45.5765C170.747 45.4915 171.046 45.4491 171.347 45.4505C171.629 45.4487 171.911 45.4671 172.191 45.5056C172.442 45.5403 172.69 45.593 172.933 45.6632V46.2933C172.411 46.0901 171.854 45.9911 171.293 46.0018C171.079 46.0001 170.866 46.032 170.662 46.0964C170.481 46.1536 170.312 46.2421 170.162 46.3578C170.025 46.4641 169.914 46.5984 169.835 46.7516C169.758 46.9045 169.718 47.0735 169.72 47.2447C169.715 47.4247 169.747 47.6036 169.814 47.7708C169.885 47.9271 169.987 48.0671 170.114 48.1819C170.275 48.3274 170.452 48.4547 170.641 48.5616C170.858 48.6897 171.118 48.8325 171.421 48.99C171.719 49.1447 172.006 49.3173 172.283 49.5067Z" fill="url(#paint22_linear_68_69)"/>
<path d="M185.945 51.493C185.945 51.5938 185.956 51.7057 185.964 51.8238H185.937C185.874 51.7325 185.814 51.6474 185.757 51.5687L185.738 51.5417L185.715 51.5091C185.674 51.4513 185.635 51.3967 185.599 51.3544L181.065 45.5734H180.473V52.8761H181.126V46.728C181.126 46.6729 181.126 46.624 181.117 46.5784H181.144L181.17 46.6192L181.186 46.6439C181.198 46.6617 181.209 46.6788 181.22 46.6953C181.26 46.7563 181.296 46.8083 181.327 46.8509C181.337 46.8657 181.348 46.8802 181.359 46.8945C181.367 46.9043 181.374 46.914 181.382 46.9236L181.399 46.9445C181.414 46.963 181.43 46.9811 181.446 46.999C181.458 47.0134 181.471 47.0275 181.485 47.0415L186.046 52.8698H186.603V45.5734H185.95L185.945 51.493Z" fill="url(#paint23_linear_68_69)"/>
<path fill-rule="evenodd" clip-rule="evenodd" d="M194.466 45.7151C194.887 45.8845 195.267 46.14 195.582 46.4649C195.9 46.7967 196.146 47.1903 196.304 47.6212C196.479 48.0977 196.566 48.6021 196.559 49.1097C196.568 49.6622 196.479 50.2119 196.297 50.7338C196.137 51.189 195.885 51.6062 195.556 51.9593C195.231 52.2995 194.834 52.5641 194.395 52.7343C193.911 52.9181 193.396 53.009 192.877 53.0021C192.365 53.0095 191.856 52.9169 191.379 52.7296C190.95 52.5587 190.562 52.2995 190.24 51.9688C189.918 51.6331 189.67 51.2339 189.512 50.7968C189.337 50.3174 189.251 49.8105 189.256 49.3003C189.25 48.7639 189.338 48.2306 189.518 47.7251C189.68 47.2713 189.936 46.8568 190.27 46.5091C190.604 46.1635 191.009 45.8948 191.458 45.7214C191.959 45.532 192.491 45.4384 193.027 45.4458C193.52 45.4396 194.009 45.5311 194.466 45.7151ZM195.079 51.5828C195.35 51.2883 195.555 50.9399 195.682 50.5605C195.828 50.1214 195.9 49.6607 195.893 49.1979C195.901 48.7421 195.831 48.2884 195.687 47.8559C195.562 47.4833 195.36 47.1409 195.095 46.8509C194.835 46.5746 194.518 46.3594 194.165 46.2208C193.774 46.0709 193.359 45.9971 192.94 46.0034C192.525 45.9991 192.114 46.0801 191.731 46.2413C191.372 46.3937 191.049 46.6202 190.784 46.906C190.508 47.202 190.294 47.5494 190.153 47.9283C189.999 48.3496 189.923 48.7953 189.929 49.2436C189.923 49.6937 189.993 50.1415 190.135 50.5684C190.262 50.9411 190.463 51.2841 190.727 51.5765C190.986 51.857 191.304 52.0774 191.657 52.2224C192.042 52.3777 192.454 52.4549 192.869 52.4492C193.301 52.4565 193.729 52.3806 194.132 52.2255C194.491 52.0836 194.815 51.8641 195.079 51.5828Z" fill="url(#paint24_linear_68_69)"/>
<path d="M205.67 51.6537C205.647 51.7167 205.629 51.775 205.614 51.827C205.6 51.879 205.591 51.9294 205.581 51.9845H205.564C205.552 51.935 205.54 51.8808 205.526 51.8217L205.509 51.7522L205.496 51.6994C205.469 51.5907 205.433 51.4678 205.387 51.3324L203.512 45.5734H203.097L201.163 51.3276C201.113 51.4852 201.07 51.6128 201.034 51.7214C201.004 51.8055 200.981 51.8919 200.966 51.9798H200.946C200.929 51.8937 200.905 51.796 200.875 51.6868C200.845 51.5781 200.81 51.4584 200.769 51.3276L199.012 45.5734H198.291L200.633 52.8761H201.252L203.103 47.3266C203.185 47.109 203.244 46.8836 203.28 46.654H203.301C203.329 46.8873 203.382 47.117 203.458 47.3392L205.289 52.8761H205.868L208.279 45.5734H207.576L205.67 51.6537Z" fill="url(#paint25_linear_68_69)"/>
<path d="M211.037 51.9439C211.103 51.9168 211.174 51.9033 211.246 51.9042C211.393 51.9032 211.536 51.9597 211.642 52.0617C211.694 52.1122 211.735 52.1731 211.762 52.2404C211.79 52.3076 211.802 52.3799 211.8 52.4524C211.802 52.5248 211.789 52.5968 211.762 52.664C211.734 52.7312 211.694 52.7921 211.642 52.843C211.59 52.8944 211.528 52.9348 211.46 52.9618C211.392 52.9889 211.319 53.002 211.246 53.0005C211.174 53.0025 211.102 52.9895 211.036 52.9624C210.969 52.9353 210.909 52.8946 210.859 52.843C210.808 52.7921 210.767 52.7312 210.74 52.664C210.713 52.5968 210.7 52.5248 210.701 52.4524C210.699 52.3799 210.712 52.3077 210.739 52.2404C210.766 52.1731 210.807 52.1123 210.859 52.0617C210.91 52.011 210.97 51.9709 211.037 51.9439Z" fill="url(#paint26_linear_68_69)"/>
<path d="M211.587 43.1349H210.865L210.933 50.1384H211.519L211.587 43.1349Z" fill="url(#paint27_linear_68_69)"/>
<path d="M139.115 40.6366H169.893V42.2119H139.115V40.6366Z" fill="url(#paint28_linear_68_69)"/>
<defs>
<linearGradient id="paint0_linear_68_69" x1="6.16618" y1="5.13587" x2="228.823" y2="56.2015" gradientUnits="userSpaceOnUse">
<stop stop-color="#CC44FF"/>
<stop offset="1" stop-color="#4457FF"/>
</linearGradient>
<linearGradient id="paint1_linear_68_69" x1="6.16618" y1="5.13587" x2="228.823" y2="56.2015" gradientUnits="userSpaceOnUse">
<stop stop-color="#CC44FF"/>
<stop offset="1" stop-color="#4457FF"/>
</linearGradient>
<linearGradient id="paint2_linear_68_69" x1="6.16618" y1="5.13587" x2="228.823" y2="56.2015" gradientUnits="userSpaceOnUse">
<stop stop-color="#CC44FF"/>
<stop offset="1" stop-color="#4457FF"/>
</linearGradient>
<linearGradient id="paint3_linear_68_69" x1="6.16618" y1="5.13587" x2="228.823" y2="56.2015" gradientUnits="userSpaceOnUse">
<stop stop-color="#CC44FF"/>
<stop offset="1" stop-color="#4457FF"/>
</linearGradient>
<linearGradient id="paint4_linear_68_69" x1="6.16618" y1="5.13587" x2="228.823" y2="56.2015" gradientUnits="userSpaceOnUse">
<stop stop-color="#CC44FF"/>
<stop offset="1" stop-color="#4457FF"/>
</linearGradient>
<linearGradient id="paint5_linear_68_69" x1="6.16618" y1="5.13587" x2="228.823" y2="56.2015" gradientUnits="userSpaceOnUse">
<stop stop-color="#CC44FF"/>
<stop offset="1" stop-color="#4457FF"/>
</linearGradient>
<linearGradient id="paint6_linear_68_69" x1="6.16618" y1="5.13587" x2="228.823" y2="56.2015" gradientUnits="userSpaceOnUse">
<stop stop-color="#CC44FF"/>
<stop offset="1" stop-color="#4457FF"/>
</linearGradient>
<linearGradient id="paint7_linear_68_69" x1="6.16618" y1="5.13587" x2="228.823" y2="56.2015" gradientUnits="userSpaceOnUse">
<stop stop-color="#CC44FF"/>
<stop offset="1" stop-color="#4457FF"/>
</linearGradient>
<linearGradient id="paint8_linear_68_69" x1="6.16618" y1="5.13587" x2="228.823" y2="56.2015" gradientUnits="userSpaceOnUse">
<stop stop-color="#CC44FF"/>
<stop offset="1" stop-color="#4457FF"/>
</linearGradient>
<linearGradient id="paint9_linear_68_69" x1="6.16618" y1="5.13587" x2="228.823" y2="56.2015" gradientUnits="userSpaceOnUse">
<stop stop-color="#CC44FF"/>
<stop offset="1" stop-color="#4457FF"/>
</linearGradient>
<linearGradient id="paint10_linear_68_69" x1="6.16618" y1="5.13587" x2="228.823" y2="56.2015" gradientUnits="userSpaceOnUse">
<stop stop-color="#CC44FF"/>
<stop offset="1" stop-color="#4457FF"/>
</linearGradient>
<linearGradient id="paint11_linear_68_69" x1="6.16618" y1="5.13587" x2="228.823" y2="56.2015" gradientUnits="userSpaceOnUse">
<stop stop-color="#CC44FF"/>
<stop offset="1" stop-color="#4457FF"/>
</linearGradient>
<linearGradient id="paint12_linear_68_69" x1="6.16618" y1="5.13587" x2="228.823" y2="56.2015" gradientUnits="userSpaceOnUse">
<stop stop-color="#CC44FF"/>
<stop offset="1" stop-color="#4457FF"/>
</linearGradient>
<linearGradient id="paint13_linear_68_69" x1="6.16618" y1="5.13587" x2="228.823" y2="56.2015" gradientUnits="userSpaceOnUse">
<stop stop-color="#CC44FF"/>
<stop offset="1" stop-color="#4457FF"/>
</linearGradient>
<linearGradient id="paint14_linear_68_69" x1="6.16618" y1="5.13587" x2="228.823" y2="56.2015" gradientUnits="userSpaceOnUse">
<stop stop-color="#CC44FF"/>
<stop offset="1" stop-color="#4457FF"/>
</linearGradient>
<linearGradient id="paint15_linear_68_69" x1="6.16618" y1="5.13587" x2="228.823" y2="56.2015" gradientUnits="userSpaceOnUse">
<stop stop-color="#CC44FF"/>
<stop offset="1" stop-color="#4457FF"/>
</linearGradient>
<linearGradient id="paint16_linear_68_69" x1="6.16618" y1="5.13587" x2="228.823" y2="56.2015" gradientUnits="userSpaceOnUse">
<stop stop-color="#CC44FF"/>
<stop offset="1" stop-color="#4457FF"/>
</linearGradient>
<linearGradient id="paint17_linear_68_69" x1="6.16618" y1="5.13587" x2="228.823" y2="56.2015" gradientUnits="userSpaceOnUse">
<stop stop-color="#CC44FF"/>
<stop offset="1" stop-color="#4457FF"/>
</linearGradient>
<linearGradient id="paint18_linear_68_69" x1="6.16618" y1="5.13587" x2="228.823" y2="56.2015" gradientUnits="userSpaceOnUse">
<stop stop-color="#CC44FF"/>
<stop offset="1" stop-color="#4457FF"/>
</linearGradient>
<linearGradient id="paint19_linear_68_69" x1="6.16618" y1="5.13587" x2="228.823" y2="56.2015" gradientUnits="userSpaceOnUse">
<stop stop-color="#CC44FF"/>
<stop offset="1" stop-color="#4457FF"/>
</linearGradient>
<linearGradient id="paint20_linear_68_69" x1="6.16618" y1="5.13587" x2="228.823" y2="56.2015" gradientUnits="userSpaceOnUse">
<stop stop-color="#CC44FF"/>
<stop offset="1" stop-color="#4457FF"/>
</linearGradient>
<linearGradient id="paint21_linear_68_69" x1="6.16618" y1="5.13587" x2="228.823" y2="56.2015" gradientUnits="userSpaceOnUse">
<stop stop-color="#CC44FF"/>
<stop offset="1" stop-color="#4457FF"/>
</linearGradient>
<linearGradient id="paint22_linear_68_69" x1="6.16618" y1="5.13587" x2="228.823" y2="56.2015" gradientUnits="userSpaceOnUse">
<stop stop-color="#CC44FF"/>
<stop offset="1" stop-color="#4457FF"/>
</linearGradient>
<linearGradient id="paint23_linear_68_69" x1="6.16618" y1="5.13587" x2="228.823" y2="56.2015" gradientUnits="userSpaceOnUse">
<stop stop-color="#CC44FF"/>
<stop offset="1" stop-color="#4457FF"/>
</linearGradient>
<linearGradient id="paint24_linear_68_69" x1="6.16618" y1="5.13587" x2="228.823" y2="56.2015" gradientUnits="userSpaceOnUse">
<stop stop-color="#CC44FF"/>
<stop offset="1" stop-color="#4457FF"/>
</linearGradient>
<linearGradient id="paint25_linear_68_69" x1="6.16618" y1="5.13587" x2="228.823" y2="56.2015" gradientUnits="userSpaceOnUse">
<stop stop-color="#CC44FF"/>
<stop offset="1" stop-color="#4457FF"/>
</linearGradient>
<linearGradient id="paint26_linear_68_69" x1="6.16618" y1="5.13587" x2="228.823" y2="56.2015" gradientUnits="userSpaceOnUse">
<stop stop-color="#CC44FF"/>
<stop offset="1" stop-color="#4457FF"/>
</linearGradient>
<linearGradient id="paint27_linear_68_69" x1="6.16618" y1="5.13587" x2="228.823" y2="56.2015" gradientUnits="userSpaceOnUse">
<stop stop-color="#CC44FF"/>
<stop offset="1" stop-color="#4457FF"/>
</linearGradient>
<linearGradient id="paint28_linear_68_69" x1="6.16618" y1="5.13587" x2="228.823" y2="56.2015" gradientUnits="userSpaceOnUse">
<stop stop-color="#CC44FF"/>
<stop offset="1" stop-color="#4457FF"/>
</linearGradient>
</defs>
</svg>
